<svg width="14" height="8" viewBox="0 0 14 8" fill="none" xmlns="http://www.w3.org/2000/svg">
<path d="M13.364 0.293013C13.1764 0.105542 12.9221 0.000226498 12.657 0.000226498C12.3918 0.000226498 12.1375 0.105542 11.95 0.293013L6.99995 5.24301L2.04995 0.293013C1.86135 0.110855 1.60875 0.0100608 1.34655 0.0123391C1.08435 0.0146174 0.83354 0.119786 0.648132 0.305194C0.462725 0.490602 0.357556 0.741415 0.355278 1.00361C0.353 1.26581 0.453794 1.51841 0.635952 1.70701L6.29295 7.36401C6.48048 7.55148 6.73479 7.6568 6.99995 7.6568C7.26512 7.6568 7.51942 7.55148 7.70695 7.36401L13.364 1.70701C13.5514 1.51948 13.6567 1.26518 13.6567 1.00001C13.6567 0.734848 13.5514 0.480541 13.364 0.293013Z" fill="#E31836"/>
</svg>
