<svg width="24" height="24" viewBox="0 0 24 24" fill="none" xmlns="http://www.w3.org/2000/svg">
<g clip-path="url(#clip0_227_169)">
<path d="M12.9999 3C13.5044 2.99984 13.9904 3.19041 14.3604 3.5335C14.7304 3.87659 14.957 4.34684 14.9949 4.85L14.9999 5V9H17.9999C18.5044 8.99984 18.9904 9.19041 19.3604 9.5335C19.7304 9.87659 19.957 10.3468 19.9949 10.85L19.9999 11V19H20.9999C21.2547 19.0003 21.4999 19.0979 21.6852 19.2728C21.8706 19.4478 21.9821 19.687 21.997 19.9414C22.012 20.1958 21.9292 20.4464 21.7656 20.6418C21.602 20.8373 21.37 20.9629 21.1169 20.993L20.9999 21H2.99987C2.74499 20.9997 2.49984 20.9021 2.3145 20.7272C2.12916 20.5522 2.01763 20.313 2.0027 20.0586C1.98776 19.8042 2.07054 19.5536 2.23413 19.3582C2.39772 19.1627 2.62977 19.0371 2.88287 19.007L2.99987 19H3.99987V5C3.99971 4.49542 4.19027 4.00943 4.53337 3.63945C4.87646 3.26947 5.34671 3.04284 5.84987 3.005L5.99987 3H12.9999ZM17.9999 11H14.9999V19H17.9999V11ZM12.9999 5H5.99987V19H12.9999V5ZM10.9999 15V17H7.99987V15H10.9999ZM10.9999 11V13H7.99987V11H10.9999ZM10.9999 7V9H7.99987V7H10.9999Z" fill="#E31836"/>
</g>
<defs>
<clipPath id="clip0_227_169">
<rect width="24" height="24" fill="white"/>
</clipPath>
</defs>
</svg>
