<svg width="85" height="76" viewBox="0 0 85 76" fill="none" xmlns="http://www.w3.org/2000/svg">
<path d="M75.75 75.75C77.9547 75.75 80.069 74.8742 81.6279 73.3153C83.1868 71.7564 84.0625 69.6421 84.0625 67.4375V47.1384C84.0625 44.9338 83.1868 42.8194 81.6279 41.2605C80.069 39.7017 77.9547 38.8259 75.75 38.8259H64.2123C64.2123 35.9054 64.3841 32.985 64.7277 30.0645C65.243 26.9723 66.102 24.2236 67.3046 21.8185C68.5071 19.4134 70.056 17.5209 71.9512 16.1411C73.8354 14.5949 76.2405 13.8219 79.1665 13.8219V0.9375C74.3563 0.9375 70.1447 1.96825 66.5315 4.02975C62.9433 6.06527 59.8605 8.88387 57.5124 12.2757C55.1484 16.0093 53.4078 20.1027 52.3587 24.3954C51.2979 29.1314 50.7792 33.9726 50.8125 38.8259V67.4375C50.8125 69.6421 51.6883 71.7564 53.2472 73.3153C54.8061 74.8742 56.9204 75.75 59.125 75.75H75.75ZM25.8751 75.75C28.0797 75.75 30.194 74.8742 31.7529 73.3153C33.3118 71.7564 34.1875 69.6421 34.1875 67.4375V47.1384C34.1875 44.9338 33.3118 42.8194 31.7529 41.2605C30.194 39.7017 28.0797 38.8259 25.8751 38.8259H14.3373C14.3373 35.9054 14.5091 32.985 14.8527 30.0645C15.3736 26.9723 16.2326 24.2236 17.4296 21.8185C18.6321 19.4134 20.181 17.5209 22.0762 16.1411C23.9604 14.5949 26.3655 13.8219 29.2915 13.8219V0.9375C24.4813 0.9375 20.2697 1.96825 16.6565 4.02975C13.0683 6.06527 9.98549 8.88387 7.63743 12.2757C5.27344 16.0093 3.53277 20.1027 2.48368 24.3954C1.42286 29.1314 0.904155 33.9726 0.93755 38.8259V67.4375C0.93755 69.6421 1.81333 71.7564 3.37223 73.3153C4.93112 74.8742 7.04544 75.75 9.25005 75.75H25.8751Z" fill="#2E2E31"/>
</svg>
