<svg width="20" height="20" viewBox="0 0 20 20" fill="none" xmlns="http://www.w3.org/2000/svg">
<path d="M10.4706 5.33203H9.5312C9.44526 5.33203 9.37495 5.40235 9.37495 5.48828V10.8652C9.37495 10.916 9.39838 10.9629 9.4394 10.9922L12.6679 13.3496C12.7382 13.4004 12.8359 13.3867 12.8867 13.3164L13.4453 12.5547C13.498 12.4824 13.4824 12.3848 13.4121 12.3359L10.6269 10.3223V5.48828C10.6269 5.40235 10.5566 5.33203 10.4706 5.33203ZM14.7636 6.80078L17.8261 7.54883C17.9238 7.57227 18.0195 7.49805 18.0195 7.39844L18.0351 4.24414C18.0351 4.11328 17.8847 4.03906 17.7831 4.1211L14.705 6.52539C14.6818 6.54339 14.664 6.56759 14.6539 6.5952C14.6438 6.62282 14.6417 6.65273 14.6478 6.6815C14.6539 6.71027 14.668 6.73672 14.6885 6.75782C14.709 6.77893 14.735 6.79382 14.7636 6.80078ZM18.039 12.6816L16.9316 12.3008C16.893 12.2875 16.8507 12.2899 16.8139 12.3075C16.777 12.325 16.7484 12.3562 16.7343 12.3945C16.6972 12.4941 16.6581 12.5918 16.6171 12.6895C16.2695 13.5117 15.7714 14.252 15.1347 14.8867C14.5051 15.5183 13.7589 16.0218 12.9374 16.3691C12.0865 16.7289 11.1718 16.9136 10.248 16.9121C9.3144 16.9121 8.4101 16.7305 7.55854 16.3691C6.73713 16.0218 5.99092 15.5183 5.36127 14.8867C4.72651 14.252 4.22846 13.5117 3.87885 12.6895C3.52107 11.8381 3.33777 10.9235 3.33979 10C3.33979 9.06641 3.52143 8.16016 3.88276 7.3086C4.23041 6.48633 4.72846 5.7461 5.36518 5.11133C5.99483 4.47973 6.74104 3.97628 7.56245 3.62891C8.4101 3.26758 9.31635 3.08594 10.2499 3.08594C11.1835 3.08594 12.0878 3.26758 12.9394 3.62891C13.7608 3.97628 14.507 4.47973 15.1367 5.11133C15.3359 5.3125 15.5234 5.52149 15.6953 5.74219L16.8632 4.82813C15.3261 2.86328 12.9335 1.59961 10.246 1.60156C5.56635 1.60352 1.80854 5.4043 1.85541 10.0859C1.90229 14.6855 5.64252 18.3984 10.2499 18.3984C13.873 18.3984 16.9589 16.1016 18.1347 12.8848C18.164 12.8027 18.121 12.7109 18.039 12.6816Z" fill="#CCCCCC"/>
</svg>
