<svg width="35" height="35" viewBox="0 0 35 35" fill="none" xmlns="http://www.w3.org/2000/svg">
<path d="M15.7337 3.32567C16.4856 1.90985 18.5144 1.90984 19.2663 3.32567L22.4113 9.24713C22.7004 9.79142 23.2243 10.172 23.8313 10.2788L30.4348 11.44C32.0137 11.7177 32.6406 13.6471 31.5264 14.7998L26.8666 19.6207C26.4383 20.0638 26.2382 20.6797 26.3243 21.2899L27.2605 27.9291C27.4843 29.5165 25.843 30.7089 24.4025 30.0055L18.3776 27.0635C17.8238 26.7931 17.1762 26.7931 16.6224 27.0635L10.5975 30.0055C9.15697 30.7089 7.51571 29.5165 7.73955 27.9291L8.67574 21.2899C8.76179 20.6797 8.56169 20.0638 8.13337 19.6207L3.47359 14.7998C2.35943 13.6471 2.98633 11.7177 4.56523 11.44L11.1687 10.2788C11.7757 10.172 12.2996 9.79142 12.5887 9.24713L15.7337 3.32567Z" fill="#6A6A6A"/>
<mask id="mask0_56_46" style="mask-type:alpha" maskUnits="userSpaceOnUse" x="0" y="0" width="18" height="35">
<rect width="17.5" height="35" fill="#D9D9D9"/>
</mask>
<g mask="url(#mask0_56_46)">
<path d="M15.7337 3.32567C16.4856 1.90985 18.5144 1.90984 19.2663 3.32567L22.4113 9.24713C22.7004 9.79142 23.2243 10.172 23.8313 10.2788L30.4348 11.44C32.0137 11.7177 32.6406 13.6471 31.5264 14.7998L26.8666 19.6207C26.4383 20.0638 26.2382 20.6797 26.3243 21.2899L27.2605 27.9291C27.4843 29.5165 25.843 30.7089 24.4025 30.0055L18.3776 27.0635C17.8238 26.7931 17.1762 26.7931 16.6224 27.0635L10.5975 30.0055C9.15697 30.7089 7.51571 29.5165 7.73955 27.9291L8.67574 21.2899C8.76179 20.6797 8.56169 20.0638 8.13337 19.6207L3.47359 14.7998C2.35943 13.6471 2.98633 11.7177 4.56523 11.44L11.1687 10.2788C11.7757 10.172 12.2996 9.79142 12.5887 9.24713L15.7337 3.32567Z" fill="#FFD233"/>
</g>
</svg>
