<svg width="24" height="24" viewBox="0 0 24 24" fill="none" xmlns="http://www.w3.org/2000/svg">
<path d="M15 22H7V19.5C4.59 17.87 3 15.12 3 12V4C3 3.46957 3.21071 2.96086 3.58579 2.58579C3.96086 2.21071 4.46957 2 5 2H9C9.53043 2 10.0391 2.21071 10.4142 2.58579C10.7893 2.96086 11 3.46957 11 4V12H21C21 15.09 19 18 15 19.5V22ZM18.71 14H5.29C5.5709 14.9412 6.04627 15.8129 6.68536 16.5588C7.32444 17.3047 8.11299 17.9081 9 18.33V20H13V18.33C15 18 18.14 15.91 18.71 14ZM9 4H5V12H9V4ZM8 5V8H6V5H8Z" fill="#E31836"/>
</svg>
